<?xml version="1.0" encoding="UTF-8" standalone="no"?>
<!DOCTYPE svg PUBLIC "-//W3C//DTD SVG 1.1//EN" "http://www.w3.org/Graphics/SVG/1.1/DTD/svg11.dtd">
<svg width="100%" height="100%" viewBox="0 0 700 700" version="1.1" xmlns="http://www.w3.org/2000/svg" xmlns:xlink="http://www.w3.org/1999/xlink" xml:space="preserve" xmlns:serif="http://www.serif.com/" style="fill-rule:evenodd;clip-rule:evenodd;stroke-linejoin:round;stroke-miterlimit:2;">
    <g transform="matrix(1,0,0,1,-50,-50)">
        <path d="M400,50C593.17,50 750,206.83 750,400C750,593.17 593.17,750 400,750C206.83,750 50,593.17 50,400C50,206.83 206.83,50 400,50ZM584.466,470.457C600.956,461.597 590.865,460.612 612.031,448.06C615.969,445.599 613.016,447.322 618.923,444.86C628.521,440.676 648.211,454.705 669.623,453.475C674.546,453.228 650.918,447.568 650.918,447.568C622.122,434.277 618.677,431.324 611.047,432.554C608.832,432.801 603.171,432.554 593.573,436.739C590.619,438.215 587.173,438.954 583.974,439.2C575.852,439.692 566.253,442.645 559.854,439.446C553.455,436.492 559.116,412.865 566.499,404.251C574.867,394.652 584.22,385.546 591.357,374.963C600.464,361.18 609.57,346.905 615.723,331.4C629.752,297.189 656.579,286.852 689.067,305.311C700.142,311.71 710.479,318.601 725,323.77C722.785,317.617 721.308,311.218 718.601,305.557C710.725,288.575 701.619,272.085 693.989,254.857C678.484,219.908 647.965,202.187 611.293,208.094C607.601,208.586 603.663,208.832 595.295,209.817C602.679,201.449 607.355,195.05 613.016,189.881C618.431,184.713 625.076,182.498 630.736,175.852C631.475,174.13 631.229,171.422 629.752,170.438C622.368,166.992 615.723,168.469 605.632,170.684C590.619,173.884 576.59,181.759 564.038,190.373C548.533,200.71 534.504,213.509 520.721,226.553C514.814,231.968 510.63,232.214 505.216,227.784C497.34,221.631 489.464,215.478 482.081,208.832C468.298,196.28 453.777,195.05 436.056,200.218C400.615,210.309 364.928,219.662 328.995,226.799C281.002,236.398 232.516,243.781 184.277,252.395C181.323,252.888 178.37,253.872 175.417,256.087C204.705,267.163 232.762,255.595 261.312,251.657C261.558,252.888 262.05,253.872 262.296,255.103C203.966,276.761 145.636,298.42 85.583,320.57C97.643,336.076 110.933,327.462 121.024,325.493C146.128,320.57 170.494,312.202 195.598,305.065C155.235,330.907 110.687,349.612 75,382.592C110.933,385.054 139.975,366.595 170.494,352.32C144.898,373.732 119.548,394.898 92.228,417.541C113.641,430.093 125.208,409.419 141.944,408.927C136.53,416.311 131.607,422.956 124.47,432.554C130.131,432.062 133.576,432.308 136.53,431.078C146.867,427.14 157.204,423.448 167.048,418.526C183.292,410.404 198.798,395.637 215.288,394.898C233.254,393.914 249.498,390.222 262.543,381.116C280.509,368.564 300.691,369.056 319.888,364.626C327.518,362.903 338.593,369.056 345.731,374.963C364.928,390.96 382.895,408.681 401.354,425.909C392.247,434.77 378.957,442.399 382.895,462.335C384.125,468.98 373.05,480.302 365.42,486.208C339.332,506.636 312.259,525.834 285.678,545.031C275.341,552.661 257.128,555.122 269.188,576.288C277.064,571.858 284.939,573.088 290.6,582.195C291.585,583.918 293.8,586.133 293.307,586.871C284.201,603.361 299.707,611.237 305.86,621.82C312.259,633.141 341.301,635.11 352.376,625.266C391.755,591.055 430.396,556.106 450.331,505.406C453.039,498.76 455.746,493.838 465.591,494.33C474.451,494.823 483.557,488.177 495.125,483.747C497.832,495.807 501.77,507.375 503.247,519.434C504.97,535.186 513.83,543.8 525.89,552.414C541.641,563.49 556.409,576.288 570.93,589.332C575.606,593.516 547.548,601.392 551.732,608.776C559.362,604.838 585.204,594.255 586.681,594.008C607.601,592.04 610.555,595.977 635.413,601.146C659.286,606.068 575.852,577.272 559.362,565.213C526.874,540.847 513.338,509.097 518.998,468.734C519.983,460.858 519.983,452.982 520.967,445.353C521.214,442.645 523.675,440.43 525.151,437.969C527.367,439.938 530.812,441.415 531.797,443.876C538.196,459.628 545.333,462.581 560.839,457.412C575.606,452.49 605.632,443.876 605.632,443.876L588.404,464.796C588.65,464.304 582.743,471.195 584.466,470.457Z" style="fill:white;"/>
    </g>
</svg>
