<?xml version="1.0" encoding="utf-8"?>
<!-- Generator: Adobe Illustrator 22.1.0, SVG Export Plug-In . SVG Version: 6.00 Build 0)  -->
<svg version="1.1" id="Layer_1" xmlns="http://www.w3.org/2000/svg" xmlns:xlink="http://www.w3.org/1999/xlink" x="0px" y="0px"
	 viewBox="0 0 283.5 283.5" style="enable-background:new 0 0 283.5 283.5;" xml:space="preserve">
<path fill="white" d="M212,163.3c6.7-3.6,2.6-4,11.2-9.1c1.6-1,0.4-0.3,2.8-1.3c3.9-1.7,11.9,4,20.6,3.5c2-0.1-7.6-2.4-7.6-2.4
	c-11.7-5.4-13.1-6.6-16.2-6.1c-0.9,0.1-3.2,0-7.1,1.7c-1.2,0.6-2.6,0.9-3.9,1c-3.3,0.2-7.2,1.4-9.8,0.1c-2.6-1.2-0.3-10.8,2.7-14.3
	c3.4-3.9,7.2-7.6,10.1-11.9c3.7-5.6,7.4-11.4,9.9-17.7c5.7-13.9,16.6-18.1,29.8-10.6c4.5,2.6,8.7,5.4,14.6,7.5
	c-0.9-2.5-1.5-5.1-2.6-7.4c-3.2-6.9-6.9-13.6-10-20.6c-6.3-14.2-18.7-21.4-33.6-19c-1.5,0.2-3.1,0.3-6.5,0.7c3-3.4,4.9-6,7.2-8.1
	c2.2-2.1,4.9-3,7.2-5.7c0.3-0.7,0.2-1.8-0.4-2.2c-3-1.4-5.7-0.8-9.8,0.1c-6.1,1.3-11.8,4.5-16.9,8c-6.3,4.2-12,9.4-17.6,14.7
	c-2.4,2.2-4.1,2.3-6.3,0.5c-3.2-2.5-6.4-5-9.4-7.7c-5.6-5.1-11.5-5.6-18.7-3.5c-14.4,4.1-28.9,7.9-43.5,10.8
	c-19.5,3.9-39.2,6.9-58.8,10.4c-1.2,0.2-2.4,0.6-3.6,1.5c11.9,4.5,23.3-0.2,34.9-1.8c0.1,0.5,0.3,0.9,0.4,1.4
	c-23.7,8.8-47.4,17.6-71.8,26.6c4.9,6.3,10.3,2.8,14.4,2c10.2-2,20.1-5.4,30.3-8.3C37.6,106.6,19.5,114.2,5,127.6
	c14.6,1,26.4-6.5,38.8-12.3C33.4,124,23.1,132.6,12,141.8c8.7,5.1,13.4-3.3,20.2-3.5c-2.2,3-4.2,5.7-7.1,9.6
	c2.3-0.2,3.7-0.1,4.9-0.6c4.2-1.6,8.4-3.1,12.4-5.1c6.6-3.3,12.9-9.3,19.6-9.6c7.3-0.4,13.9-1.9,19.2-5.6c7.3-5.1,15.5-4.9,23.3-6.7
	c3.1-0.7,7.6,1.8,10.5,4.2c7.8,6.5,15.1,13.7,22.6,20.7c-3.7,3.6-9.1,6.7-7.5,14.8c0.5,2.7-4,7.3-7.1,9.7
	c-10.6,8.3-21.6,16.1-32.4,23.9c-4.2,3.1-11.6,4.1-6.7,12.7c3.2-1.8,6.4-1.3,8.7,2.4c0.4,0.7,1.3,1.6,1.1,1.9
	c-3.7,6.7,2.6,9.9,5.1,14.2c2.6,4.6,14.4,5.4,18.9,1.4c16-13.9,31.7-28.1,39.8-48.7c1.1-2.7,2.2-4.7,6.2-4.5c3.6,0.2,7.3-2.5,12-4.3
	c1.1,4.9,2.7,9.6,3.3,14.5c0.7,6.4,4.3,9.9,9.2,13.4c6.4,4.5,12.4,9.7,18.3,15c1.9,1.7-9.5,4.9-7.8,7.9c3.1-1.6,13.6-5.9,14.2-6
	c8.5-0.8,9.7,0.8,19.8,2.9c9.7,2-24.2-9.7-30.9-14.6c-13.2-9.9-18.7-22.8-16.4-39.2c0.4-3.2,0.4-6.4,0.8-9.5c0.1-1.1,1.1-2,1.7-3
	c0.9,0.8,2.3,1.4,2.7,2.4c2.6,6.4,5.5,7.6,11.8,5.5c6-2,18.2-5.5,18.2-5.5l-7,8.5C213.7,160.8,211.3,163.6,212,163.3z"/>
</svg>
